<svg id="svg" version="1.1" xmlns="http://www.w3.org/2000/svg" xmlns:xlink="http://www.w3.org/1999/xlink" width="400" height="400" viewBox="0, 0, 400,400"><g id="svgg"><path id="path0" d="M185.846 82.687 C 185.575 82.958,184.189 83.181,178.000 83.952 C 176.570 84.130,174.410 84.585,173.200 84.963 C 168.934 86.296,168.535 86.400,167.672 86.400 C 167.192 86.400,166.800 86.591,166.800 86.824 C 166.800 87.057,166.663 87.163,166.496 87.060 C 166.231 86.895,159.416 89.109,154.497 90.958 C 151.632 92.035,141.054 97.474,140.143 98.338 C 139.671 98.786,139.206 99.072,139.109 98.976 C 138.877 98.743,130.179 104.509,128.616 105.931 C 127.947 106.539,127.252 107.060,127.072 107.089 C 125.738 107.297,107.374 125.648,107.243 126.905 C 107.225 127.072,106.674 127.800,106.017 128.521 C 104.532 130.154,98.735 138.869,98.976 139.109 C 99.072 139.206,98.786 139.671,98.339 140.143 C 97.293 141.245,93.162 149.428,93.487 149.753 C 93.622 149.889,93.554 150.000,93.335 150.000 C 92.960 150.000,92.453 151.022,90.459 155.800 C 89.572 157.926,86.727 166.722,86.061 169.400 C 85.841 170.280,85.350 171.990,84.969 173.200 C 84.587 174.410,84.130 176.570,83.952 178.000 C 83.774 179.430,83.416 181.770,83.157 183.200 C 82.506 186.787,82.514 213.277,83.167 216.800 C 83.432 218.230,83.743 220.525,83.858 221.900 C 83.974 223.275,84.203 224.400,84.367 224.400 C 84.532 224.400,84.667 224.666,84.667 224.992 C 84.667 225.318,84.877 226.308,85.133 227.192 C 85.390 228.076,85.793 229.565,86.030 230.500 C 86.482 232.290,89.869 242.598,90.959 245.503 C 91.800 247.745,97.261 258.400,99.004 261.200 C 99.757 262.410,100.683 263.985,101.061 264.700 C 101.439 265.415,101.905 266.000,102.098 266.000 C 102.290 266.000,102.349 266.160,102.228 266.355 C 102.107 266.550,102.301 266.952,102.659 267.249 C 103.016 267.546,103.740 268.421,104.266 269.194 C 106.281 272.154,107.318 273.465,109.211 275.448 C 110.287 276.576,111.089 277.578,110.992 277.675 C 110.895 277.771,113.501 280.449,116.782 283.625 C 123.093 289.733,126.857 293.131,126.947 292.800 C 126.977 292.690,127.639 293.180,128.417 293.888 C 129.196 294.597,131.882 296.533,134.386 298.191 C 140.803 302.439,141.492 301.646,140.027 291.700 C 139.792 290.105,139.426 287.585,139.214 286.100 C 138.698 282.487,138.126 279.051,137.618 276.500 C 137.388 275.345,137.031 273.545,136.825 272.500 C 136.619 271.455,136.248 269.790,136.000 268.800 C 135.752 267.810,135.392 266.190,135.200 265.200 C 134.868 263.491,134.559 262.179,133.659 258.658 C 133.443 257.811,132.666 256.526,131.933 255.804 C 130.564 254.457,129.059 252.622,128.000 251.011 C 127.670 250.509,126.752 249.131,125.959 247.949 C 122.869 243.339,119.341 236.649,118.077 233.000 C 117.849 232.340,117.122 230.360,116.462 228.600 C 115.803 226.840,114.967 224.140,114.605 222.600 C 114.243 221.060,113.758 219.170,113.528 218.400 C 111.673 212.194,111.798 188.353,113.724 181.000 C 114.069 179.680,114.646 177.365,115.006 175.856 C 115.365 174.347,116.173 171.827,116.800 170.256 C 117.427 168.685,118.070 166.860,118.228 166.200 C 118.387 165.540,118.813 164.550,119.175 164.000 C 119.537 163.450,120.269 162.010,120.802 160.800 C 121.335 159.590,122.247 157.880,122.828 157.000 C 123.410 156.120,124.933 153.690,126.214 151.600 C 131.962 142.222,143.423 131.037,153.393 125.074 C 153.830 124.813,154.925 124.117,155.828 123.526 C 156.731 122.935,158.983 121.712,160.832 120.808 C 162.682 119.904,164.367 118.993,164.578 118.782 C 164.788 118.572,165.337 118.400,165.799 118.400 C 166.260 118.400,168.159 117.773,170.019 117.007 C 172.172 116.121,174.067 115.612,175.237 115.607 C 177.312 115.599,184.121 110.970,189.956 105.600 C 190.793 104.830,192.620 103.390,194.017 102.400 C 195.414 101.410,197.287 100.011,198.178 99.290 C 199.070 98.570,200.663 97.310,201.717 96.490 C 202.771 95.671,204.223 94.460,204.943 93.800 C 205.663 93.140,207.304 91.880,208.591 91.000 C 209.877 90.120,211.599 88.770,212.418 88.000 C 213.236 87.230,214.377 86.277,214.953 85.881 C 216.278 84.972,216.276 84.275,214.946 83.229 C 213.868 82.381,186.659 81.875,185.846 82.687 M269.110 104.969 C 266.917 106.572,266.779 116.636,268.758 130.600 C 269.125 133.194,269.331 134.317,270.387 139.500 C 271.170 143.342,271.575 145.433,271.801 146.800 C 272.264 149.597,273.397 152.524,274.087 152.705 C 274.464 152.805,274.880 153.222,275.010 153.633 C 275.141 154.043,275.867 155.280,276.625 156.382 C 278.618 159.279,281.089 164.339,282.162 167.720 C 282.674 169.332,283.305 171.049,283.565 171.534 C 284.257 172.827,286.795 182.917,287.305 186.400 C 287.855 190.157,287.840 210.037,287.285 213.800 C 286.880 216.547,286.441 218.609,285.580 221.800 C 285.343 222.680,284.991 224.134,284.799 225.030 C 283.985 228.835,278.586 241.448,277.042 243.154 C 276.720 243.510,276.268 244.295,276.039 244.898 C 275.810 245.501,274.582 247.441,273.311 249.209 C 272.040 250.977,270.609 253.003,270.131 253.712 C 265.992 259.845,254.698 270.349,248.586 273.751 C 247.934 274.113,246.230 275.151,244.800 276.056 C 241.726 278.002,236.876 280.399,236.011 280.401 C 235.388 280.403,232.763 281.856,232.400 282.401 C 232.290 282.566,231.019 283.668,229.576 284.850 C 228.132 286.033,225.612 288.205,223.974 289.679 C 222.337 291.152,220.060 293.042,218.914 293.879 C 217.769 294.715,214.019 297.560,210.582 300.200 C 204.582 304.809,201.190 307.247,192.700 313.054 C 186.215 317.490,186.590 317.667,202.055 317.463 C 208.948 317.372,215.324 317.097,216.800 316.827 C 218.230 316.565,220.525 316.257,221.900 316.142 C 223.275 316.026,224.400 315.797,224.400 315.633 C 224.400 315.468,224.666 315.333,224.992 315.333 C 225.318 315.333,226.308 315.123,227.192 314.867 C 228.076 314.610,229.565 314.207,230.500 313.970 C 232.290 313.518,242.598 310.131,245.503 309.041 C 248.362 307.968,258.945 302.528,259.857 301.662 C 260.329 301.214,260.796 300.929,260.895 301.028 C 260.994 301.128,261.738 300.759,262.549 300.209 C 263.359 299.659,264.602 298.912,265.311 298.549 C 266.020 298.186,267.176 297.419,267.879 296.845 C 268.582 296.270,269.901 295.260,270.809 294.600 C 275.028 291.533,289.452 278.119,289.008 277.675 C 288.911 277.578,289.713 276.576,290.789 275.448 C 292.594 273.558,293.661 272.221,295.460 269.600 C 295.837 269.050,296.597 268.105,297.148 267.500 C 297.699 266.895,298.013 266.400,297.846 266.400 C 297.679 266.400,297.781 266.145,298.071 265.833 C 298.362 265.522,299.140 264.344,299.800 263.215 C 300.460 262.087,301.578 260.243,302.285 259.119 C 302.991 257.994,303.476 256.923,303.361 256.737 C 303.247 256.552,303.304 256.400,303.489 256.400 C 303.818 256.400,307.912 248.156,309.549 244.200 C 310.436 242.053,313.284 233.232,313.939 230.600 C 314.159 229.720,314.650 228.010,315.031 226.800 C 315.413 225.590,315.870 223.430,316.048 222.000 C 316.226 220.570,316.584 218.230,316.843 216.800 C 317.148 215.122,317.315 209.164,317.315 200.000 C 317.315 190.836,317.148 184.878,316.843 183.200 C 316.584 181.770,316.226 179.430,316.048 178.000 C 315.870 176.570,315.413 174.410,315.031 173.200 C 314.650 171.990,314.158 170.280,313.939 169.400 C 313.518 167.710,310.125 157.385,309.041 154.497 C 308.044 151.841,302.560 141.094,301.738 140.184 C 301.332 139.736,300.941 139.106,300.868 138.784 C 300.751 138.268,296.517 131.853,293.751 128.001 C 293.198 127.232,291.866 125.679,290.789 124.552 C 289.713 123.424,288.911 122.422,289.008 122.325 C 289.237 122.097,277.968 111.174,274.934 108.684 C 269.526 104.244,269.833 104.440,269.110 104.969 " stroke="none" fill="#f8fbf8" fill-rule="evenodd"></path><path id="path1" d="M170.019 117.007 C 168.159 117.773,166.260 118.400,165.799 118.400 C 165.337 118.400,164.788 118.572,164.578 118.782 C 164.367 118.993,162.682 119.904,160.832 120.808 C 158.983 121.712,156.731 122.935,155.828 123.526 C 154.925 124.117,153.830 124.813,153.393 125.074 C 143.423 131.037,131.962 142.222,126.214 151.600 C 124.933 153.690,123.410 156.120,122.828 157.000 C 122.247 157.880,121.335 159.590,120.802 160.800 C 120.269 162.010,119.537 163.450,119.175 164.000 C 118.813 164.550,118.387 165.540,118.228 166.200 C 118.070 166.860,117.427 168.685,116.800 170.256 C 116.173 171.827,115.365 174.347,115.006 175.856 C 114.646 177.365,114.069 179.680,113.724 181.000 C 111.798 188.353,111.673 212.194,113.528 218.400 C 113.758 219.170,114.243 221.060,114.605 222.600 C 114.967 224.140,115.803 226.840,116.462 228.600 C 117.122 230.360,117.849 232.340,118.077 233.000 C 119.341 236.649,122.869 243.339,125.959 247.949 C 126.752 249.131,127.670 250.509,128.000 251.011 C 129.841 253.811,132.497 256.710,132.690 256.129 C 132.883 255.552,128.856 241.360,126.566 234.544 C 125.595 231.653,124.800 228.654,124.800 227.880 C 124.800 227.105,124.456 225.510,124.036 224.336 C 122.907 221.178,121.246 213.519,120.364 207.400 C 119.853 203.854,120.090 191.523,120.734 188.200 C 120.947 187.100,121.327 185.030,121.579 183.600 C 122.705 177.201,126.484 166.507,129.494 161.200 C 133.318 154.458,137.737 148.363,142.200 143.673 C 145.471 140.236,152.424 134.395,155.534 132.472 C 156.487 131.882,158.158 130.635,159.247 129.700 C 160.336 128.765,161.405 128.000,161.622 128.000 C 161.840 128.000,162.779 127.315,163.709 126.478 C 164.639 125.641,166.481 124.156,167.802 123.178 C 170.384 121.267,176.800 115.961,176.800 115.736 C 176.800 115.107,172.823 115.852,170.019 117.007 M273.362 153.133 C 273.468 153.500,273.914 155.150,274.353 156.800 C 274.791 158.450,275.607 161.510,276.167 163.600 C 278.236 171.324,279.515 176.656,279.793 178.711 C 279.950 179.871,280.338 181.761,280.655 182.911 C 282.144 188.302,282.705 203.039,281.678 209.800 C 281.411 211.560,281.083 213.720,280.950 214.600 C 280.685 216.348,278.510 224.018,277.223 227.741 C 273.657 238.056,265.292 250.214,255.323 259.570 C 253.203 261.560,250.859 264.046,250.114 265.094 C 248.760 267.001,242.081 273.577,241.483 273.592 C 241.019 273.604,237.367 277.089,235.571 279.234 L 234.021 281.085 236.133 280.389 C 238.703 279.541,241.355 278.212,244.800 276.045 C 246.230 275.146,247.934 274.113,248.586 273.751 C 254.698 270.349,265.992 259.845,270.131 253.712 C 270.609 253.003,272.040 250.977,273.311 249.209 C 274.582 247.441,275.810 245.501,276.039 244.898 C 276.268 244.295,276.720 243.510,277.042 243.154 C 278.586 241.448,283.985 228.835,284.799 225.030 C 284.991 224.134,285.343 222.680,285.580 221.800 C 286.441 218.609,286.880 216.547,287.285 213.800 C 287.840 210.037,287.855 190.157,287.305 186.400 C 286.795 182.917,284.257 172.827,283.565 171.534 C 283.305 171.049,282.674 169.332,282.162 167.720 C 281.089 164.339,278.618 159.279,276.625 156.382 C 275.867 155.280,275.141 154.043,275.010 153.633 C 274.701 152.658,273.080 152.167,273.362 153.133 " stroke="none" fill="#90f98f" fill-rule="evenodd"></path><path id="path2" d="M286.738 26.980 C 283.851 29.272,281.302 31.313,279.219 33.000 C 278.132 33.880,276.503 35.140,275.600 35.800 C 274.697 36.460,273.068 37.720,271.981 38.600 C 270.894 39.480,269.103 40.920,268.000 41.800 C 266.897 42.680,265.106 44.120,264.019 45.000 C 262.932 45.880,261.303 47.140,260.400 47.800 C 259.497 48.460,257.868 49.720,256.781 50.600 C 253.193 53.505,251.023 55.222,249.200 56.600 C 247.492 57.891,246.206 58.906,241.600 62.600 C 236.994 66.294,235.708 67.309,234.000 68.600 C 232.177 69.978,230.007 71.695,226.419 74.600 C 225.332 75.480,223.703 76.740,222.800 77.400 C 221.897 78.060,220.282 79.320,219.212 80.200 C 218.142 81.080,216.804 82.121,216.239 82.514 C 215.344 83.137,215.275 83.334,215.706 84.043 C 216.138 84.755,216.059 84.966,215.076 85.728 C 214.457 86.208,213.271 87.230,212.440 88.000 C 211.609 88.770,209.877 90.120,208.591 91.000 C 207.304 91.880,205.663 93.140,204.943 93.800 C 204.223 94.460,202.771 95.671,201.717 96.490 C 200.663 97.310,199.070 98.570,198.178 99.290 C 197.287 100.011,195.414 101.410,194.017 102.400 C 192.620 103.390,190.793 104.830,189.956 105.600 C 188.052 107.352,185.604 109.290,181.000 112.686 C 179.020 114.147,175.780 116.706,173.800 118.372 C 171.820 120.038,169.120 122.205,167.800 123.187 C 166.480 124.170,164.639 125.654,163.709 126.487 C 162.779 127.319,161.840 128.000,161.622 128.000 C 161.405 128.000,160.336 128.765,159.247 129.700 C 158.158 130.635,156.487 131.882,155.534 132.472 C 152.424 134.395,145.471 140.236,142.200 143.673 C 137.737 148.363,133.318 154.458,129.494 161.200 C 126.484 166.507,122.705 177.201,121.579 183.600 C 121.327 185.030,120.947 187.100,120.734 188.200 C 120.090 191.523,119.853 203.854,120.364 207.400 C 121.246 213.519,122.907 221.178,124.036 224.336 C 124.456 225.510,124.800 227.119,124.800 227.910 C 124.800 228.701,125.511 231.430,126.380 233.974 C 127.855 238.289,130.469 247.072,132.428 254.293 C 132.892 256.002,133.447 258.030,133.662 258.800 C 134.295 261.068,134.826 263.278,135.200 265.200 C 135.392 266.190,135.752 267.810,136.000 268.800 C 136.248 269.790,136.625 271.500,136.838 272.600 C 137.051 273.700,137.408 275.500,137.631 276.600 C 138.118 279.003,138.690 282.437,139.214 286.100 C 139.426 287.585,139.789 290.105,140.019 291.700 C 140.955 298.169,140.948 299.851,139.984 300.526 C 139.229 301.055,139.148 301.357,139.409 302.671 C 140.097 306.138,139.545 323.315,138.390 334.400 C 136.653 351.053,137.300 351.600,149.400 343.721 C 185.938 319.928,189.619 317.459,189.195 317.035 C 188.389 316.229,188.889 315.661,192.700 313.054 C 201.190 307.247,204.582 304.809,210.582 300.200 C 214.019 297.560,217.737 294.738,218.843 293.929 C 219.949 293.119,222.687 290.833,224.927 288.848 C 227.167 286.862,229.748 284.664,230.661 283.963 C 231.575 283.262,234.005 280.888,236.061 278.688 C 238.118 276.488,240.430 274.277,241.200 273.775 C 243.293 272.408,248.578 267.264,250.116 265.094 C 250.860 264.046,253.203 261.560,255.323 259.570 C 265.292 250.214,273.657 238.056,277.223 227.741 C 278.510 224.018,280.685 216.348,280.950 214.600 C 281.083 213.720,281.411 211.560,281.678 209.800 C 282.646 203.427,282.138 187.951,280.818 183.600 C 280.585 182.830,280.202 181.030,279.967 179.600 C 279.435 176.353,278.315 171.608,276.614 165.400 C 275.890 162.760,275.188 160.060,275.052 159.400 C 274.917 158.740,274.251 156.220,273.572 153.800 C 272.893 151.380,272.166 148.500,271.956 147.400 C 271.746 146.300,271.406 144.590,271.200 143.600 C 270.994 142.610,270.634 140.810,270.400 139.600 C 270.166 138.390,269.790 136.500,269.564 135.400 C 266.989 122.832,266.669 105.950,268.990 105.059 C 269.315 104.935,269.611 103.936,269.741 102.527 C 269.859 101.247,270.146 99.075,270.378 97.700 C 270.610 96.325,270.966 94.165,271.170 92.900 C 271.510 90.781,271.760 89.659,272.818 85.500 C 273.636 82.286,274.618 78.318,275.170 76.000 C 275.849 73.141,281.229 56.802,283.928 49.400 C 286.719 41.743,288.840 35.889,289.850 33.053 C 290.388 31.542,291.092 29.796,291.414 29.173 C 293.154 25.808,290.048 24.351,286.738 26.980 " stroke="none" fill="#7b44fb" fill-rule="evenodd"></path></g></svg>